<?xml version="1.0" standalone="no"?>
<!DOCTYPE svg PUBLIC "-//W3C//DTD SVG 20010904//EN"
 "http://www.w3.org/TR/2001/REC-SVG-20010904/DTD/svg10.dtd">
<svg version="1.0" xmlns="http://www.w3.org/2000/svg"
 width="552.000000pt" height="552.000000pt" viewBox="0 0 552.000000 552.000000"
 preserveAspectRatio="xMidYMid meet">
<metadata>
Created by potrace 1.14, written by Peter Selinger 2001-2017
</metadata>
<g transform="translate(0.000000,552.000000) scale(0.100000,-0.100000)"
fill="#000000" stroke="none">
<path d="M2558 5515 c-1 -1 -32 -6 -68 -9 -136 -14 -168 -19 -275 -41 -198
-41 -340 -84 -510 -154 -54 -22 -278 -133 -343 -170 -92 -53 -289 -190 -338
-236 -6 -5 -36 -30 -65 -55 -209 -175 -439 -451 -589 -710 -191 -327 -320
-727 -357 -1105 -21 -208 -5 -592 32 -775 94 -472 276 -868 565 -1229 85 -108
250 -280 330 -346 25 -21 65 -54 88 -74 175 -145 451 -309 683 -404 91 -38
230 -86 263 -93 12 -2 32 -8 46 -13 14 -5 68 -19 120 -31 247 -54 345 -64 620
-65 180 0 284 5 370 20 14 2 47 6 74 10 27 3 52 8 55 10 3 1 22 6 41 9 123 20
318 78 485 143 110 43 353 165 417 210 26 18 50 33 53 33 3 0 38 23 77 52 368
261 654 582 860 963 76 142 128 263 193 450 38 110 97 368 110 480 3 28 8 64
11 80 3 17 7 131 8 255 3 203 -4 313 -28 480 -6 38 -6 40 -30 150 -81 378
-248 741 -493 1073 -36 48 -68 87 -72 87 -4 0 -14 13 -24 29 -22 37 -256 274
-322 326 -27 22 -52 42 -55 45 -16 18 -139 106 -225 162 -286 186 -599 318
-915 384 -41 9 -84 18 -95 20 -105 23 -273 37 -467 39 -124 2 -228 2 -230 0z"/>
</g>
</svg>
